<svg width="20" height="20" viewBox="0 0 20 20" fill="none" xmlns="http://www.w3.org/2000/svg">
<path d="M0 10C0 4.47715 4.47715 0 10 0V0C15.5228 0 20 4.47715 20 10V10C20 15.5228 15.5228 20 10 20V20C4.47715 20 0 15.5228 0 10V10Z" fill="#FFFFEF"/>
<path d="M13.5859 12.1484C13.5859 13.8411 13.2969 15.099 12.7188 15.9219C12.1406 16.7448 11.237 17.1562 10.0078 17.1562C8.79427 17.1562 7.89583 16.7552 7.3125 15.9531C6.72917 15.1458 6.42708 13.9427 6.40625 12.3438V10.4141C6.40625 8.74219 6.69531 7.5 7.27344 6.6875C7.85156 5.875 8.75781 5.46875 9.99219 5.46875C11.2161 5.46875 12.1172 5.86198 12.6953 6.64844C13.2734 7.42969 13.5703 8.63802 13.5859 10.2734V12.1484ZM12.1406 10.1719C12.1406 8.94792 11.9688 8.05729 11.625 7.5C11.2812 6.9375 10.737 6.65625 9.99219 6.65625C9.2526 6.65625 8.71354 6.9349 8.375 7.49219C8.03646 8.04948 7.86198 8.90625 7.85156 10.0625V12.375C7.85156 13.6042 8.02865 14.513 8.38281 15.1016C8.74219 15.6849 9.28385 15.9766 10.0078 15.9766C10.7214 15.9766 11.25 15.7005 11.5938 15.1484C11.9427 14.5964 12.125 13.7266 12.1406 12.5391V10.1719Z" fill="#56593D"/>
</svg>
